<?xml version="1.0" encoding="utf-8"?>
<!-- Generator: Adobe Illustrator 16.0.0, SVG Export Plug-In . SVG Version: 6.00 Build 0)  -->
<!DOCTYPE svg PUBLIC "-//W3C//DTD SVG 1.1//EN" "http://www.w3.org/Graphics/SVG/1.1/DTD/svg11.dtd">
<svg enable-background="new 0 0 600 300" height="300px" id="Layer_1" version="1.1" viewBox="0 0 600 300"
     width="600px"
     x="0px" xml:space="preserve" xmlns="http://www.w3.org/2000/svg" y="0px">
<g>
	<g>
		<path d="M256.46,124.295c13.848,0,20.772,7.664,20.772,22.99c0,1.093-0.033,2.233-0.097,3.422h-38.412
			c0,13.238,7.004,19.856,21.014,19.856c5.751,0,10.859-0.803,15.326-2.409v4.337c-4.467,1.607-9.575,2.41-15.326,2.41
			c-17.384,0-26.074-8.627-26.074-25.881C233.663,132.537,241.262,124.295,256.46,124.295z M238.724,146.177h33.641
			c-0.192-11.76-5.494-17.641-15.904-17.641C245.213,128.536,239.302,134.417,238.724,146.177z" fill="#010202"/>
    <path d="M290.244,174.901v-50.606h3.615l0.626,6.459c6.459-4.306,12.788-6.459,18.989-6.459
			c12.307,0,18.459,5.318,18.459,15.953v34.653h-5.061v-34.798c0-7.519-4.547-11.277-13.639-11.277
			c-6.073,0-12.05,2.137-17.93,6.409v39.666H290.244z" fill="#010202"/>
    <path d="M383.985,173.455c-4.177,0.964-8.675,1.446-13.494,1.446c-17.03,0-25.544-8.755-25.544-26.267
			c0-16.226,8.514-24.34,25.544-24.34c4.819,0,9.317,0.482,13.494,1.446v4.338c-4.498-0.964-8.836-1.446-13.013-1.446
			c-13.656,0-20.483,6.668-20.483,20.002c0,14.62,6.827,21.929,20.483,21.929c4.177,0,8.515-0.481,13.013-1.445V173.455z"
          fill="#010202"/>
    <path d="M402.3,105.98v5.784h-6.024v-5.784H402.3z M401.818,124.295v50.606h-5.062v-50.606H401.818z" fill="#010202"/>
    <path d="M418.204,174.901v-50.606h3.615l0.626,8.387c5.077-5.591,10.731-8.387,16.966-8.387v4.049
			c-6.041,0-11.423,2.94-16.146,8.82v37.737H418.204z" fill="#010202"/>
    <path d="M485.438,173.455c-4.177,0.964-8.675,1.446-13.494,1.446c-17.03,0-25.544-8.755-25.544-26.267
			c0-16.226,8.514-24.34,25.544-24.34c4.819,0,9.317,0.482,13.494,1.446v4.338c-4.498-0.964-8.836-1.446-13.013-1.446
			c-13.656,0-20.483,6.668-20.483,20.002c0,14.62,6.827,21.929,20.483,21.929c4.177,0,8.515-0.481,13.013-1.445V173.455z"
          fill="#010202"/>
    <path d="M503.271,105.98v68.921h-5.062V105.98H503.271z" fill="#010202"/>
    <path d="M540.044,124.295c13.848,0,20.772,7.664,20.772,22.99c0,1.093-0.033,2.233-0.097,3.422h-38.412
			c0,13.238,7.004,19.856,21.014,19.856c5.751,0,10.859-0.803,15.326-2.409v4.337c-4.467,1.607-9.575,2.41-15.326,2.41
			c-17.384,0-26.074-8.627-26.074-25.881C517.247,132.537,524.846,124.295,540.044,124.295z M522.308,146.177h33.641
			c-0.192-11.76-5.494-17.641-15.904-17.641C528.797,128.536,522.886,134.417,522.308,146.177z" fill="#010202"/>
	</g>
  <path d="M213.809,232.688c1.671,1.214,3.303,2.303,4.85,3.273c8.222-6.855,15.444-14.864,21.417-23.782
		c-22.567-11.583-38.019-35.069-38.019-62.181c0-27.109,15.453-50.596,38.018-62.178c-5.976-8.924-13.204-16.938-21.431-23.796
		c-3.045,1.89-4.833,3.256-4.833,3.256l3.337,7.166c-3.565,2.591-6.942,5.426-10.102,8.483l-6.462-4.519
		c-7.272,7.02-11.558,13.734-11.558,13.734l5.581,5.585c-2.461,3.634-4.671,7.453-6.61,11.427l-7.595-2.029
		c-4.433,9.082-6.164,16.859-6.164,16.859l7.147,3.336c-1.054,4.226-1.827,8.566-2.285,13l-7.842,0.691
		c-1.058,10.053-0.026,17.952-0.026,17.952l7.867,0.693c0.457,4.432,1.228,8.771,2.282,12.998l-7.124,3.328
		c2.443,9.809,6.114,16.877,6.114,16.877l7.619-2.038c1.939,3.975,4.146,7.794,6.608,11.429l-5.562,5.57
		c5.647,8.381,11.517,13.769,11.517,13.769l6.481-4.534c3.159,3.059,6.536,5.894,10.101,8.484L213.809,232.688z"
        fill="#010202"/>
  <path d="M42.079,166.46c-1.889,0.841-3.645,1.71-5.26,2.565c1.825,10.546,5.151,20.805,9.888,30.437
		c21.314-13.75,49.38-15.39,72.858-1.834c23.478,13.556,36.091,38.68,34.84,64.015c10.716-0.714,21.271-2.967,31.322-6.662
		c-0.114-3.582-0.403-5.814-0.403-5.814l-7.874-0.692c-0.46-4.384-1.227-8.726-2.297-12.99l7.145-3.337
		c-2.442-9.809-6.116-16.878-6.116-16.878l-7.627,2.041c-1.916-3.949-4.117-7.771-6.59-11.438l5.556-5.563
		c-5.65-8.379-11.52-13.769-11.52-13.769l-6.463,4.522c-3.133-3.027-6.504-5.865-10.116-8.478l3.322-7.138
		c-8.175-5.943-15.533-9-15.533-9l-4.532,6.468c-4.068-1.821-8.212-3.322-12.399-4.523l0.679-7.832
		c-9.714-2.79-17.673-3.145-17.673-3.145l-2.043,7.616c-4.411-0.309-8.823-0.307-13.201,0.008l-2.043-7.602
		c-10.082,0.701-17.683,3.091-17.683,3.091l0.686,7.881c-4.229,1.207-8.372,2.712-12.398,4.504L42.079,166.46z"
        fill="#010202"/>
  <path d="M185.299,50.852c0.215-2.056,0.34-4.013,0.41-5.84c-10.046-3.69-20.595-5.94-31.305-6.654
		c1.251,25.336-11.361,50.459-34.839,64.014c-23.479,13.555-51.544,11.917-72.859-1.835c-4.739,9.638-8.067,19.904-9.892,30.458
		c3.159,1.692,5.236,2.559,5.236,2.559l4.538-6.473c4.027,1.792,8.169,3.299,12.397,4.506l-0.683,7.856
		c9.715,2.789,17.676,3.143,17.676,3.143l2.044-7.627c4.379,0.315,8.79,0.32,13.201,0.011l2.04,7.594
		c10.083-0.703,17.685-3.092,17.685-3.092l-0.686-7.857c4.188-1.2,8.333-2.701,12.4-4.522l4.521,6.445
		c9.233-4.107,15.559-8.953,15.559-8.953l-3.333-7.158c3.611-2.611,6.982-5.449,10.117-8.477l6.444,4.506
		c7.272-7.019,11.56-13.733,11.56-13.733l-5.574-5.579c2.473-3.665,4.676-7.486,6.593-11.436l7.605,2.031
		c4.434-9.081,6.165-16.858,6.165-16.858l-7.168-3.346c1.067-4.266,1.837-8.607,2.297-12.991L185.299,50.852z"
        fill="#010202"/>
  <g>
		<path d="M476.197,181.038c3.189-0.989,6.542-1.499,10.061-1.531c8.557-0.077,12.863,3.002,12.921,9.24
			c0.034,3.774-1.445,6.387-4.439,7.837c3.02,1.332,4.546,3.917,4.581,7.756c0.06,6.558-4.188,9.875-12.745,9.952
			c-3.519,0.032-6.881-0.418-10.088-1.348l-0.053-5.758c3.209,1.09,6.571,1.619,10.09,1.587c4.318-0.039,6.463-1.737,6.432-5.096
			c-0.026-2.879-1.574-4.305-4.646-4.276l-8.348,0.076l-0.05-5.517l8.276-0.075c3.118-0.029,4.664-1.482,4.638-4.361
			c-0.027-3.039-2.2-4.539-6.519-4.5c-3.519,0.032-6.871,0.623-10.06,1.771L476.197,181.038z" fill="#010202"/>
    <path d="M503.126,200.706c-0.08-8.892,5.353-16.322,16.303-22.293l3.067,4.938
			c-5.606,2.626-9.448,5.772-11.526,9.438c1.93-0.705,3.894-1.067,5.894-1.086c8.38-0.076,12.601,3.404,12.665,10.44
			c0.071,7.837-4.394,11.797-13.397,11.879C507.542,214.102,503.208,209.662,503.126,200.706z M516.301,208.983
			c4.686-0.043,7.009-2.304,6.968-6.782c-0.033-3.678-2.226-5.497-6.575-5.458c-2.464,0.022-4.812,0.428-7.044,1.216
			c-0.282,0.643-0.418,1.491-0.408,2.547C509.293,206.2,511.646,209.025,516.301,208.983z" fill="#010202"/>
    <path d="M532.837,196.524c-0.105-11.626,4.942-17.486,15.146-17.579c10.027-0.091,15.095,5.677,15.2,17.303
			c0.105,11.563-4.855,17.392-14.883,17.482C538.097,213.823,532.942,208.088,532.837,196.524z M548.25,208.212
			c5.629-0.051,8.407-4.067,8.335-12.048c-0.072-7.852-2.922-11.752-8.551-11.701c-5.806,0.053-8.673,4.006-8.601,11.857
			C539.506,204.301,542.444,208.265,548.25,208.212z" fill="#010202"/>
	</g>
</g>
</svg>
